<svg width="475" height="410" viewBox="0 0 475 410" fill="none" xmlns="http://www.w3.org/2000/svg">
<path fill-rule="evenodd" clip-rule="evenodd" d="M201.297 398.78C158.177 408.136 110.519 418.351 72.1771 396.541C32.5479 374 3.01121 329.799 0.119731 284.348C-2.60973 241.443 42.0681 212.523 57.9278 172.556C72.2203 136.538 63.0556 92.9622 87.8793 63.1877C116.21 29.2064 157.146 3.95545 201.297 0.593669C247.042 -2.88951 293.176 15.0989 328.018 44.9027C361.321 73.3902 370.467 118.223 386.472 158.991C403.715 202.911 445.384 249.119 424.879 291.617C403.893 335.111 338.792 327.256 295.206 348.146C262.33 363.904 236.932 391.047 201.297 398.78Z" fill="#043CAA" fill-opacity="0.3"/>
<path fill-rule="evenodd" clip-rule="evenodd" d="M243.11 30.4852C278.356 33.2165 312.766 34.7353 344.752 49.768C383 67.7436 422.518 87.7417 443.236 124.538C466.385 165.652 489.005 221.218 463.715 261.054C437.542 302.28 371.426 283.769 327.965 306.106C294.848 323.126 279.331 365.767 243.11 374.431C202.528 384.137 152.986 383.708 122.504 355.247C92.2663 327.015 112.278 275.226 96.1052 237.173C77.2658 192.847 13.748 165.092 21.4838 117.562C28.9973 71.3968 85.7402 50.1976 129.323 33.0739C165.514 18.8548 204.336 27.4806 243.11 30.4852Z" fill="#043CAA"/>
</svg>
